<?xml version="1.0" encoding="utf-8"?>
<!DOCTYPE score-partwise  PUBLIC "-//Recordare//DTD MusicXML 4.0 Partwise//EN" "http://www.musicxml.org/dtds/partwise.dtd">
<score-partwise version="4.0">
  <work>
    <work-title>Aire de Muiñeira</work-title>
  </work>
  <movement-title>pezas_muineiras_aire-de-muineira_aire-de-muineira-partitura.musicxml</movement-title>
  <identification>
    <creator type="composer">Music21</creator>
    <encoding>
      <encoding-date>2025-02-21</encoding-date>
      <software>music21 v.9.3.0</software>
      <software>MuseScore 1.2</software>
    </encoding>
  </identification>
  <defaults>
    <scaling>
      <millimeters>6.35</millimeters>
      <tenths>40</tenths>
    </scaling>
    <page-layout>
      <page-height>1870.87</page-height>
      <page-width>1322.83</page-width>
      <page-margins>
        <left-margin>62.9921</left-margin>
        <right-margin>62.9921</right-margin>
        <top-margin>62.9921</top-margin>
        <bottom-margin>125.984</bottom-margin>
      </page-margins>
    </page-layout>
  </defaults>
  <credit page="1">
    <credit-words default-x="661.417" default-y="1807.87" font-size="24" justify="center" valign="top">Aire de Muiñeira</credit-words>
  </credit>
  <part-list>
    <score-part id="P1">
      <part-name>Bagpipes</part-name>
      <part-abbreviation>Bag</part-abbreviation>
      <score-instrument id="I467404d04b6e2e0f127320aa71efb2b6">
        <instrument-name>Bagpipes</instrument-name>
        <instrument-abbreviation>Bag</instrument-abbreviation>
      </score-instrument>
      <midi-instrument id="I467404d04b6e2e0f127320aa71efb2b6">
        <midi-channel>1</midi-channel>
        <midi-program>110</midi-program>
      </midi-instrument>
    </score-part>
  </part-list>
  <!--=========================== Part 1 ===========================-->
  <part id="P1">
    <!--========================= Measure 1 ==========================-->
    <measure implicit="no" number="1" width="221.35">
      <print>
        <system-layout>
          <system-margins>
            <left-margin>0</left-margin>
            <right-margin>0</right-margin>
          </system-margins>
          <top-system-distance>180</top-system-distance>
        </system-layout>
      </print>
      <attributes>
        <divisions>10080</divisions>
        <key>
          <fifths>0</fifths>
          <mode>major</mode>
        </key>
        <time>
          <beats>6</beats>
          <beat-type>8</beat-type>
        </time>
        <clef>
          <sign>G</sign>
          <line>2</line>
          <clef-octave-change>1</clef-octave-change>
        </clef>
      </attributes>
      <direction placement="above">
        <direction-type>
          <words>Allegro</words>
        </direction-type>
      </direction>
      <direction placement="above">
        <direction-type>
          <words />
        </direction-type>
        <sound tempo="180" />
      </direction>
      <note default-x="79.82" default-y="-30">
        <pitch>
          <step>G</step>
          <octave>5</octave>
        </pitch>
        <duration>5040</duration>
        <type>eighth</type>
        <stem>up</stem>
        <beam number="1">begin</beam>
      </note>
      <note default-x="103.14" default-y="-40">
        <pitch>
          <step>E</step>
          <octave>5</octave>
        </pitch>
        <duration>5040</duration>
        <type>eighth</type>
        <stem>up</stem>
        <beam number="1">continue</beam>
      </note>
      <note default-x="126.46" default-y="-35">
        <pitch>
          <step>F</step>
          <octave>5</octave>
        </pitch>
        <duration>5040</duration>
        <type>eighth</type>
        <stem>up</stem>
        <beam number="1">end</beam>
      </note>
      <note default-x="149.78" default-y="-30">
        <pitch>
          <step>G</step>
          <octave>5</octave>
        </pitch>
        <duration>5040</duration>
        <type>eighth</type>
        <stem>up</stem>
        <beam number="1">begin</beam>
      </note>
      <note default-x="173.11" default-y="-40">
        <pitch>
          <step>E</step>
          <octave>5</octave>
        </pitch>
        <duration>5040</duration>
        <type>eighth</type>
        <stem>up</stem>
        <beam number="1">continue</beam>
      </note>
      <note default-x="196.43" default-y="-35">
        <pitch>
          <step>F</step>
          <octave>5</octave>
        </pitch>
        <duration>5040</duration>
        <type>eighth</type>
        <stem>up</stem>
        <beam number="1">end</beam>
      </note>
    </measure>
    <!--========================= Measure 2 ==========================-->
    <measure implicit="no" number="2" width="145.38">
      <note default-x="12" default-y="-30">
        <pitch>
          <step>G</step>
          <octave>5</octave>
        </pitch>
        <duration>10080</duration>
        <type>quarter</type>
        <stem>up</stem>
      </note>
      <note default-x="48.64" default-y="-40">
        <pitch>
          <step>E</step>
          <octave>5</octave>
        </pitch>
        <duration>5040</duration>
        <type>eighth</type>
        <stem>up</stem>
      </note>
      <note default-x="74.82" default-y="-40">
        <pitch>
          <step>E</step>
          <octave>5</octave>
        </pitch>
        <duration>5040</duration>
        <type>eighth</type>
        <stem>up</stem>
        <beam number="1">begin</beam>
      </note>
      <note default-x="97.72" default-y="-45">
        <pitch>
          <step>D</step>
          <octave>5</octave>
        </pitch>
        <duration>5040</duration>
        <type>eighth</type>
        <stem>up</stem>
        <beam number="1">continue</beam>
      </note>
      <note default-x="120.62" default-y="-40">
        <pitch>
          <step>E</step>
          <octave>5</octave>
        </pitch>
        <duration>5040</duration>
        <type>eighth</type>
        <stem>up</stem>
        <beam number="1">end</beam>
      </note>
    </measure>
    <!--========================= Measure 3 ==========================-->
    <measure implicit="no" number="3" width="145.38">
      <note default-x="12" default-y="-35">
        <pitch>
          <step>F</step>
          <octave>5</octave>
        </pitch>
        <duration>10080</duration>
        <type>quarter</type>
        <stem>up</stem>
      </note>
      <note default-x="48.64" default-y="-45">
        <pitch>
          <step>D</step>
          <octave>5</octave>
        </pitch>
        <duration>5040</duration>
        <type>eighth</type>
        <stem>up</stem>
      </note>
      <note default-x="74.82" default-y="-45">
        <pitch>
          <step>D</step>
          <octave>5</octave>
        </pitch>
        <duration>5040</duration>
        <type>eighth</type>
        <stem>up</stem>
        <beam number="1">begin</beam>
      </note>
      <note default-x="97.72" default-y="-50">
        <pitch>
          <step>C</step>
          <octave>5</octave>
        </pitch>
        <duration>5040</duration>
        <type>eighth</type>
        <stem>up</stem>
        <beam number="1">continue</beam>
      </note>
      <note default-x="120.62" default-y="-45">
        <pitch>
          <step>D</step>
          <octave>5</octave>
        </pitch>
        <duration>5040</duration>
        <type>eighth</type>
        <stem>up</stem>
        <beam number="1">end</beam>
      </note>
    </measure>
    <!--========================= Measure 4 ==========================-->
    <measure implicit="no" number="4" width="145.38">
      <note default-x="12" default-y="-40">
        <pitch>
          <step>E</step>
          <octave>5</octave>
        </pitch>
        <duration>10080</duration>
        <type>quarter</type>
        <stem>up</stem>
      </note>
      <note default-x="48.64" default-y="-50">
        <pitch>
          <step>C</step>
          <octave>5</octave>
        </pitch>
        <duration>5040</duration>
        <tie type="start" />
        <type>eighth</type>
        <stem>up</stem>
        <notations>
          <tied type="start" />
        </notations>
      </note>
      <note default-x="74.82" default-y="-50">
        <pitch>
          <step>C</step>
          <octave>5</octave>
        </pitch>
        <duration>5040</duration>
        <tie type="stop" />
        <type>eighth</type>
        <stem>up</stem>
        <beam number="1">begin</beam>
        <notations>
          <tied type="stop" />
        </notations>
      </note>
      <note default-x="97.72" default-y="-40">
        <pitch>
          <step>E</step>
          <octave>5</octave>
        </pitch>
        <duration>5040</duration>
        <type>eighth</type>
        <stem>up</stem>
        <beam number="1">continue</beam>
      </note>
      <note default-x="120.62" default-y="-35">
        <pitch>
          <step>F</step>
          <octave>5</octave>
        </pitch>
        <duration>5040</duration>
        <type>eighth</type>
        <stem>up</stem>
        <beam number="1">end</beam>
      </note>
    </measure>
    <!--========================= Measure 5 ==========================-->
    <measure implicit="no" number="5" width="153.53">
      <note default-x="12" default-y="-30">
        <pitch>
          <step>G</step>
          <octave>5</octave>
        </pitch>
        <duration>5040</duration>
        <type>eighth</type>
        <stem>up</stem>
        <beam number="1">begin</beam>
      </note>
      <note default-x="35.32" default-y="-40">
        <pitch>
          <step>E</step>
          <octave>5</octave>
        </pitch>
        <duration>5040</duration>
        <type>eighth</type>
        <stem>up</stem>
        <beam number="1">continue</beam>
      </note>
      <note default-x="58.64" default-y="-35">
        <pitch>
          <step>F</step>
          <octave>5</octave>
        </pitch>
        <duration>5040</duration>
        <type>eighth</type>
        <stem>up</stem>
        <beam number="1">end</beam>
      </note>
      <note default-x="81.97" default-y="-30">
        <pitch>
          <step>G</step>
          <octave>5</octave>
        </pitch>
        <duration>5040</duration>
        <type>eighth</type>
        <stem>up</stem>
        <beam number="1">begin</beam>
      </note>
      <note default-x="105.29" default-y="-40">
        <pitch>
          <step>E</step>
          <octave>5</octave>
        </pitch>
        <duration>5040</duration>
        <type>eighth</type>
        <stem>up</stem>
        <beam number="1">continue</beam>
      </note>
      <note default-x="128.61" default-y="-35">
        <pitch>
          <step>F</step>
          <octave>5</octave>
        </pitch>
        <duration>5040</duration>
        <type>eighth</type>
        <stem>up</stem>
        <beam number="1">end</beam>
      </note>
    </measure>
    <!--========================= Measure 6 ==========================-->
    <measure implicit="no" number="6" width="145.38">
      <note default-x="12" default-y="-30">
        <pitch>
          <step>G</step>
          <octave>5</octave>
        </pitch>
        <duration>10080</duration>
        <type>quarter</type>
        <stem>up</stem>
      </note>
      <note default-x="48.64" default-y="-40">
        <pitch>
          <step>E</step>
          <octave>5</octave>
        </pitch>
        <duration>5040</duration>
        <type>eighth</type>
        <stem>up</stem>
      </note>
      <note default-x="74.82" default-y="-40">
        <pitch>
          <step>E</step>
          <octave>5</octave>
        </pitch>
        <duration>5040</duration>
        <type>eighth</type>
        <stem>up</stem>
        <beam number="1">begin</beam>
      </note>
      <note default-x="97.72" default-y="-45">
        <pitch>
          <step>D</step>
          <octave>5</octave>
        </pitch>
        <duration>5040</duration>
        <type>eighth</type>
        <stem>up</stem>
        <beam number="1">continue</beam>
      </note>
      <note default-x="120.62" default-y="-40">
        <pitch>
          <step>E</step>
          <octave>5</octave>
        </pitch>
        <duration>5040</duration>
        <type>eighth</type>
        <stem>up</stem>
        <beam number="1">end</beam>
      </note>
    </measure>
    <!--========================= Measure 7 ==========================-->
    <measure implicit="no" number="7" width="149.98">
      <note default-x="12" default-y="-35">
        <pitch>
          <step>F</step>
          <octave>5</octave>
        </pitch>
        <duration>10080</duration>
        <type>quarter</type>
        <stem>up</stem>
      </note>
      <note default-x="48.64" default-y="-45">
        <pitch>
          <step>D</step>
          <octave>5</octave>
        </pitch>
        <duration>5040</duration>
        <tie type="start" />
        <type>eighth</type>
        <stem>up</stem>
        <notations>
          <tied type="start" />
        </notations>
      </note>
      <note default-x="74.82" default-y="-45">
        <pitch>
          <step>D</step>
          <octave>5</octave>
        </pitch>
        <duration>5040</duration>
        <tie type="stop" />
        <type>eighth</type>
        <stem>up</stem>
        <beam number="1">begin</beam>
        <notations>
          <tied type="stop" />
        </notations>
      </note>
      <note default-x="97.72" default-y="-40">
        <pitch>
          <step>E</step>
          <octave>5</octave>
        </pitch>
        <duration>5040</duration>
        <type>eighth</type>
        <stem>up</stem>
        <beam number="1">continue</beam>
      </note>
      <note default-x="120.62" default-y="-45">
        <pitch>
          <step>D</step>
          <octave>5</octave>
        </pitch>
        <duration>5040</duration>
        <type>eighth</type>
        <stem>up</stem>
        <beam number="1">end</beam>
      </note>
      <barline location="right">
        <bar-style>light-light</bar-style>
      </barline>
    </measure>
    <!--========================= Measure 8 ==========================-->
    <measure implicit="no" number="8" width="90.46">
      <barline location="left">
        <bar-style>regular</bar-style>
      </barline>
      <note default-x="12" default-y="-50">
        <pitch>
          <step>C</step>
          <octave>5</octave>
        </pitch>
        <duration>30240</duration>
        <type>half</type>
        <dot />
        <stem>up</stem>
      </note>
      <barline location="right">
        <bar-style>light-light</bar-style>
      </barline>
    </measure>
    <!--========================= Measure 1 ==========================-->
    <measure implicit="no" number="1" width="221.35">
      <print>
        <system-layout>
          <system-margins>
            <left-margin>0</left-margin>
            <right-margin>0</right-margin>
          </system-margins>
          <top-system-distance>180</top-system-distance>
        </system-layout>
      </print>
      <attributes>
        <key>
          <fifths>0</fifths>
          <mode>major</mode>
        </key>
        <time>
          <beats>6</beats>
          <beat-type>8</beat-type>
        </time>
        <clef>
          <sign>G</sign>
          <line>2</line>
          <clef-octave-change>1</clef-octave-change>
        </clef>
      </attributes>
      <direction placement="above">
        <direction-type>
          <words>Allegro</words>
        </direction-type>
      </direction>
      <direction placement="above">
        <direction-type>
          <words />
        </direction-type>
        <sound tempo="180" />
      </direction>
      <note default-x="79.82" default-y="-30">
        <pitch>
          <step>G</step>
          <octave>5</octave>
        </pitch>
        <duration>5040</duration>
        <type>eighth</type>
        <stem>up</stem>
        <beam number="1">begin</beam>
      </note>
      <note default-x="103.14" default-y="-40">
        <pitch>
          <step>E</step>
          <octave>5</octave>
        </pitch>
        <duration>5040</duration>
        <type>eighth</type>
        <stem>up</stem>
        <beam number="1">continue</beam>
      </note>
      <note default-x="126.46" default-y="-35">
        <pitch>
          <step>F</step>
          <octave>5</octave>
        </pitch>
        <duration>5040</duration>
        <type>eighth</type>
        <stem>up</stem>
        <beam number="1">end</beam>
      </note>
      <note default-x="149.78" default-y="-30">
        <pitch>
          <step>G</step>
          <octave>5</octave>
        </pitch>
        <duration>5040</duration>
        <type>eighth</type>
        <stem>up</stem>
        <beam number="1">begin</beam>
      </note>
      <note default-x="173.11" default-y="-40">
        <pitch>
          <step>E</step>
          <octave>5</octave>
        </pitch>
        <duration>5040</duration>
        <type>eighth</type>
        <stem>up</stem>
        <beam number="1">continue</beam>
      </note>
      <note default-x="196.43" default-y="-35">
        <pitch>
          <step>F</step>
          <octave>5</octave>
        </pitch>
        <duration>5040</duration>
        <type>eighth</type>
        <stem>up</stem>
        <beam number="1">end</beam>
      </note>
    </measure>
    <!--========================= Measure 2 ==========================-->
    <measure implicit="no" number="2" width="145.38">
      <note default-x="12" default-y="-30">
        <pitch>
          <step>G</step>
          <octave>5</octave>
        </pitch>
        <duration>10080</duration>
        <type>quarter</type>
        <stem>up</stem>
      </note>
      <note default-x="48.64" default-y="-40">
        <pitch>
          <step>E</step>
          <octave>5</octave>
        </pitch>
        <duration>5040</duration>
        <type>eighth</type>
        <stem>up</stem>
      </note>
      <note default-x="74.82" default-y="-40">
        <pitch>
          <step>E</step>
          <octave>5</octave>
        </pitch>
        <duration>5040</duration>
        <type>eighth</type>
        <stem>up</stem>
        <beam number="1">begin</beam>
      </note>
      <note default-x="97.72" default-y="-45">
        <pitch>
          <step>D</step>
          <octave>5</octave>
        </pitch>
        <duration>5040</duration>
        <type>eighth</type>
        <stem>up</stem>
        <beam number="1">continue</beam>
      </note>
      <note default-x="120.62" default-y="-40">
        <pitch>
          <step>E</step>
          <octave>5</octave>
        </pitch>
        <duration>5040</duration>
        <type>eighth</type>
        <stem>up</stem>
        <beam number="1">end</beam>
      </note>
    </measure>
    <!--========================= Measure 3 ==========================-->
    <measure implicit="no" number="3" width="145.38">
      <note default-x="12" default-y="-35">
        <pitch>
          <step>F</step>
          <octave>5</octave>
        </pitch>
        <duration>10080</duration>
        <type>quarter</type>
        <stem>up</stem>
      </note>
      <note default-x="48.64" default-y="-45">
        <pitch>
          <step>D</step>
          <octave>5</octave>
        </pitch>
        <duration>5040</duration>
        <type>eighth</type>
        <stem>up</stem>
      </note>
      <note default-x="74.82" default-y="-45">
        <pitch>
          <step>D</step>
          <octave>5</octave>
        </pitch>
        <duration>5040</duration>
        <type>eighth</type>
        <stem>up</stem>
        <beam number="1">begin</beam>
      </note>
      <note default-x="97.72" default-y="-50">
        <pitch>
          <step>C</step>
          <octave>5</octave>
        </pitch>
        <duration>5040</duration>
        <type>eighth</type>
        <stem>up</stem>
        <beam number="1">continue</beam>
      </note>
      <note default-x="120.62" default-y="-45">
        <pitch>
          <step>D</step>
          <octave>5</octave>
        </pitch>
        <duration>5040</duration>
        <type>eighth</type>
        <stem>up</stem>
        <beam number="1">end</beam>
      </note>
    </measure>
    <!--========================= Measure 4 ==========================-->
    <measure implicit="no" number="4" width="145.38">
      <note default-x="12" default-y="-40">
        <pitch>
          <step>E</step>
          <octave>5</octave>
        </pitch>
        <duration>10080</duration>
        <type>quarter</type>
        <stem>up</stem>
      </note>
      <note default-x="48.64" default-y="-50">
        <pitch>
          <step>C</step>
          <octave>5</octave>
        </pitch>
        <duration>5040</duration>
        <tie type="start" />
        <type>eighth</type>
        <stem>up</stem>
        <notations>
          <tied type="start" />
        </notations>
      </note>
      <note default-x="74.82" default-y="-50">
        <pitch>
          <step>C</step>
          <octave>5</octave>
        </pitch>
        <duration>5040</duration>
        <tie type="stop" />
        <type>eighth</type>
        <stem>up</stem>
        <beam number="1">begin</beam>
        <notations>
          <tied type="stop" />
        </notations>
      </note>
      <note default-x="97.72" default-y="-40">
        <pitch>
          <step>E</step>
          <octave>5</octave>
        </pitch>
        <duration>5040</duration>
        <type>eighth</type>
        <stem>up</stem>
        <beam number="1">continue</beam>
      </note>
      <note default-x="120.62" default-y="-35">
        <pitch>
          <step>F</step>
          <octave>5</octave>
        </pitch>
        <duration>5040</duration>
        <type>eighth</type>
        <stem>up</stem>
        <beam number="1">end</beam>
      </note>
    </measure>
    <!--========================= Measure 5 ==========================-->
    <measure implicit="no" number="5" width="153.53">
      <note default-x="12" default-y="-30">
        <pitch>
          <step>G</step>
          <octave>5</octave>
        </pitch>
        <duration>5040</duration>
        <type>eighth</type>
        <stem>up</stem>
        <beam number="1">begin</beam>
      </note>
      <note default-x="35.32" default-y="-40">
        <pitch>
          <step>E</step>
          <octave>5</octave>
        </pitch>
        <duration>5040</duration>
        <type>eighth</type>
        <stem>up</stem>
        <beam number="1">continue</beam>
      </note>
      <note default-x="58.64" default-y="-35">
        <pitch>
          <step>F</step>
          <octave>5</octave>
        </pitch>
        <duration>5040</duration>
        <type>eighth</type>
        <stem>up</stem>
        <beam number="1">end</beam>
      </note>
      <note default-x="81.97" default-y="-30">
        <pitch>
          <step>G</step>
          <octave>5</octave>
        </pitch>
        <duration>5040</duration>
        <type>eighth</type>
        <stem>up</stem>
        <beam number="1">begin</beam>
      </note>
      <note default-x="105.29" default-y="-40">
        <pitch>
          <step>E</step>
          <octave>5</octave>
        </pitch>
        <duration>5040</duration>
        <type>eighth</type>
        <stem>up</stem>
        <beam number="1">continue</beam>
      </note>
      <note default-x="128.61" default-y="-35">
        <pitch>
          <step>F</step>
          <octave>5</octave>
        </pitch>
        <duration>5040</duration>
        <type>eighth</type>
        <stem>up</stem>
        <beam number="1">end</beam>
      </note>
    </measure>
    <!--========================= Measure 6 ==========================-->
    <measure implicit="no" number="6" width="145.38">
      <note default-x="12" default-y="-30">
        <pitch>
          <step>G</step>
          <octave>5</octave>
        </pitch>
        <duration>10080</duration>
        <type>quarter</type>
        <stem>up</stem>
      </note>
      <note default-x="48.64" default-y="-40">
        <pitch>
          <step>E</step>
          <octave>5</octave>
        </pitch>
        <duration>5040</duration>
        <type>eighth</type>
        <stem>up</stem>
      </note>
      <note default-x="74.82" default-y="-40">
        <pitch>
          <step>E</step>
          <octave>5</octave>
        </pitch>
        <duration>5040</duration>
        <type>eighth</type>
        <stem>up</stem>
        <beam number="1">begin</beam>
      </note>
      <note default-x="97.72" default-y="-45">
        <pitch>
          <step>D</step>
          <octave>5</octave>
        </pitch>
        <duration>5040</duration>
        <type>eighth</type>
        <stem>up</stem>
        <beam number="1">continue</beam>
      </note>
      <note default-x="120.62" default-y="-40">
        <pitch>
          <step>E</step>
          <octave>5</octave>
        </pitch>
        <duration>5040</duration>
        <type>eighth</type>
        <stem>up</stem>
        <beam number="1">end</beam>
      </note>
    </measure>
    <!--========================= Measure 7 ==========================-->
    <measure implicit="no" number="7" width="149.98">
      <note default-x="12" default-y="-35">
        <pitch>
          <step>F</step>
          <octave>5</octave>
        </pitch>
        <duration>10080</duration>
        <type>quarter</type>
        <stem>up</stem>
      </note>
      <note default-x="48.64" default-y="-45">
        <pitch>
          <step>D</step>
          <octave>5</octave>
        </pitch>
        <duration>5040</duration>
        <tie type="start" />
        <type>eighth</type>
        <stem>up</stem>
        <notations>
          <tied type="start" />
        </notations>
      </note>
      <note default-x="74.82" default-y="-45">
        <pitch>
          <step>D</step>
          <octave>5</octave>
        </pitch>
        <duration>5040</duration>
        <tie type="stop" />
        <type>eighth</type>
        <stem>up</stem>
        <beam number="1">begin</beam>
        <notations>
          <tied type="stop" />
        </notations>
      </note>
      <note default-x="97.72" default-y="-40">
        <pitch>
          <step>E</step>
          <octave>5</octave>
        </pitch>
        <duration>5040</duration>
        <type>eighth</type>
        <stem>up</stem>
        <beam number="1">continue</beam>
      </note>
      <note default-x="120.62" default-y="-45">
        <pitch>
          <step>D</step>
          <octave>5</octave>
        </pitch>
        <duration>5040</duration>
        <type>eighth</type>
        <stem>up</stem>
        <beam number="1">end</beam>
      </note>
      <barline location="right">
        <bar-style>light-light</bar-style>
      </barline>
    </measure>
    <!--========================= Measure 9 ==========================-->
    <measure implicit="no" number="9" width="156.79">
      <print new-system="yes">
        <system-layout>
          <system-margins>
            <left-margin>0</left-margin>
            <right-margin>0</right-margin>
          </system-margins>
          <system-distance>92.5</system-distance>
        </system-layout>
      </print>
      <barline location="left">
        <bar-style>regular</bar-style>
      </barline>
      <note default-x="53.15" default-y="-50">
        <pitch>
          <step>C</step>
          <octave>5</octave>
        </pitch>
        <duration>20160</duration>
        <type>half</type>
        <stem>up</stem>
      </note>
      <note default-x="98.1" default-y="-50">
        <pitch>
          <step>C</step>
          <octave>5</octave>
        </pitch>
        <duration>5040</duration>
        <type>eighth</type>
        <stem>up</stem>
        <beam number="1">begin</beam>
      </note>
      <note default-x="118.53" default-y="-40">
        <pitch>
          <step>E</step>
          <octave>5</octave>
        </pitch>
        <duration>5040</duration>
        <type>eighth</type>
        <stem>up</stem>
        <beam number="1">end</beam>
      </note>
      <barline location="right">
        <bar-style>regular</bar-style>
      </barline>
    </measure>
    <!--========================= Measure 10 =========================-->
    <measure implicit="no" number="10" width="136.59">
      <barline location="left">
        <bar-style>light-light</bar-style>
      </barline>
      <note default-x="12" default-y="-30">
        <pitch>
          <step>G</step>
          <octave>5</octave>
        </pitch>
        <duration>10080</duration>
        <type>quarter</type>
        <stem>up</stem>
      </note>
      <note default-x="44.32" default-y="-40">
        <pitch>
          <step>E</step>
          <octave>5</octave>
        </pitch>
        <duration>5040</duration>
        <type>eighth</type>
        <stem>up</stem>
      </note>
      <note default-x="70.49" default-y="-35">
        <pitch>
          <step>F</step>
          <octave>5</octave>
        </pitch>
        <duration>10080</duration>
        <type>quarter</type>
        <stem>up</stem>
      </note>
      <note default-x="102.81" default-y="-45">
        <pitch>
          <step>D</step>
          <octave>5</octave>
        </pitch>
        <duration>5040</duration>
        <type>eighth</type>
        <stem>up</stem>
      </note>
    </measure>
    <!--========================= Measure 11 =========================-->
    <measure implicit="no" number="11" width="102.14">
      <note default-x="12" default-y="-40">
        <pitch>
          <step>E</step>
          <octave>5</octave>
        </pitch>
        <duration>20160</duration>
        <type>half</type>
        <stem>up</stem>
      </note>
      <note default-x="56.95" default-y="-50">
        <pitch>
          <step>C</step>
          <octave>5</octave>
        </pitch>
        <duration>5040</duration>
        <type>eighth</type>
        <stem>up</stem>
        <beam number="1">begin</beam>
      </note>
      <note default-x="77.38" default-y="-40">
        <pitch>
          <step>E</step>
          <octave>5</octave>
        </pitch>
        <duration>5040</duration>
        <type>eighth</type>
        <stem>up</stem>
        <beam number="1">end</beam>
      </note>
    </measure>
    <!--========================= Measure 12 =========================-->
    <measure implicit="no" number="12" width="136.59">
      <note default-x="12" default-y="-30">
        <pitch>
          <step>G</step>
          <octave>5</octave>
        </pitch>
        <duration>10080</duration>
        <type>quarter</type>
        <stem>up</stem>
      </note>
      <note default-x="44.32" default-y="-40">
        <pitch>
          <step>E</step>
          <octave>5</octave>
        </pitch>
        <duration>5040</duration>
        <type>eighth</type>
        <stem>up</stem>
      </note>
      <note default-x="70.49" default-y="-35">
        <pitch>
          <step>F</step>
          <octave>5</octave>
        </pitch>
        <duration>10080</duration>
        <type>quarter</type>
        <stem>up</stem>
      </note>
      <note default-x="102.81" default-y="-45">
        <pitch>
          <step>D</step>
          <octave>5</octave>
        </pitch>
        <duration>5040</duration>
        <type>eighth</type>
        <stem>up</stem>
      </note>
    </measure>
    <!--========================= Measure 13 =========================-->
    <measure implicit="no" number="13" width="102.14">
      <note default-x="12" default-y="-40">
        <pitch>
          <step>E</step>
          <octave>5</octave>
        </pitch>
        <duration>20160</duration>
        <type>half</type>
        <stem>up</stem>
      </note>
      <note default-x="56.95" default-y="-50">
        <pitch>
          <step>C</step>
          <octave>5</octave>
        </pitch>
        <duration>5040</duration>
        <type>eighth</type>
        <stem>up</stem>
        <beam number="1">begin</beam>
      </note>
      <note default-x="77.38" default-y="-40">
        <pitch>
          <step>E</step>
          <octave>5</octave>
        </pitch>
        <duration>5040</duration>
        <type>eighth</type>
        <stem>up</stem>
        <beam number="1">end</beam>
      </note>
    </measure>
    <!--========================= Measure 14 =========================-->
    <measure implicit="no" number="14" width="136.59">
      <note default-x="12" default-y="-30">
        <pitch>
          <step>G</step>
          <octave>5</octave>
        </pitch>
        <duration>10080</duration>
        <type>quarter</type>
        <stem>up</stem>
      </note>
      <note default-x="44.32" default-y="-40">
        <pitch>
          <step>E</step>
          <octave>5</octave>
        </pitch>
        <duration>5040</duration>
        <type>eighth</type>
        <stem>up</stem>
      </note>
      <note default-x="70.49" default-y="-35">
        <pitch>
          <step>F</step>
          <octave>5</octave>
        </pitch>
        <duration>10080</duration>
        <type>quarter</type>
        <stem>up</stem>
      </note>
      <note default-x="102.81" default-y="-45">
        <pitch>
          <step>D</step>
          <octave>5</octave>
        </pitch>
        <duration>5040</duration>
        <type>eighth</type>
        <stem>up</stem>
      </note>
    </measure>
    <!--========================= Measure 15 =========================-->
    <measure implicit="no" number="15" width="152.89">
      <note default-x="12" default-y="-40">
        <pitch>
          <step>E</step>
          <octave>5</octave>
        </pitch>
        <duration>5040</duration>
        <type>eighth</type>
        <stem>up</stem>
        <beam number="1">begin</beam>
      </note>
      <note default-x="35.21" default-y="-45">
        <pitch>
          <step>D</step>
          <octave>5</octave>
        </pitch>
        <duration>5040</duration>
        <type>eighth</type>
        <stem>up</stem>
        <beam number="1">continue</beam>
      </note>
      <note default-x="58.43" default-y="-50">
        <pitch>
          <step>C</step>
          <octave>5</octave>
        </pitch>
        <duration>5040</duration>
        <tie type="start" />
        <type>eighth</type>
        <stem>up</stem>
        <beam number="1">end</beam>
        <notations>
          <tied type="start" />
        </notations>
      </note>
      <note default-x="81.64" default-y="-50">
        <pitch>
          <step>C</step>
          <octave>5</octave>
        </pitch>
        <duration>5040</duration>
        <tie type="stop" />
        <type>eighth</type>
        <stem>up</stem>
        <beam number="1">begin</beam>
        <notations>
          <tied type="stop" />
        </notations>
      </note>
      <note default-x="104.86" default-y="-40">
        <pitch>
          <step>E</step>
          <octave>5</octave>
        </pitch>
        <duration>5040</duration>
        <type>eighth</type>
        <stem>up</stem>
        <beam number="1">continue</beam>
      </note>
      <note default-x="128.07" default-y="-50">
        <pitch>
          <step>C</step>
          <octave>5</octave>
        </pitch>
        <duration>5040</duration>
        <type>eighth</type>
        <stem>up</stem>
        <beam number="1">end</beam>
      </note>
    </measure>
    <!--========================= Measure 16 =========================-->
    <measure implicit="no" number="16" width="157.49">
      <note default-x="12" default-y="-45">
        <pitch>
          <step>D</step>
          <octave>5</octave>
        </pitch>
        <duration>5040</duration>
        <type>eighth</type>
        <stem>up</stem>
        <beam number="1">begin</beam>
      </note>
      <note default-x="35.21" default-y="-50">
        <pitch>
          <step>C</step>
          <octave>5</octave>
        </pitch>
        <duration>5040</duration>
        <type>eighth</type>
        <stem>up</stem>
        <beam number="1">continue</beam>
      </note>
      <note default-x="58.43" default-y="-55">
        <pitch>
          <step>B</step>
          <octave>4</octave>
        </pitch>
        <duration>5040</duration>
        <type>eighth</type>
        <stem>up</stem>
        <beam number="1">end</beam>
      </note>
      <note default-x="81.64" default-y="-45">
        <pitch>
          <step>D</step>
          <octave>5</octave>
        </pitch>
        <duration>5040</duration>
        <type>eighth</type>
        <stem>up</stem>
        <beam number="1">begin</beam>
      </note>
      <note default-x="104.86" default-y="-50">
        <pitch>
          <step>C</step>
          <octave>5</octave>
        </pitch>
        <duration>5040</duration>
        <type>eighth</type>
        <stem>up</stem>
        <beam number="1">continue</beam>
      </note>
      <note default-x="128.07" default-y="-55">
        <pitch>
          <step>B</step>
          <octave>4</octave>
        </pitch>
        <duration>5040</duration>
        <type>eighth</type>
        <stem>up</stem>
        <beam number="1">end</beam>
      </note>
      <barline location="right">
        <bar-style>light-light</bar-style>
      </barline>
    </measure>
    <!--========================= Measure 17 =========================-->
    <measure implicit="no" number="17" width="115.64">
      <barline location="left">
        <bar-style>regular</bar-style>
      </barline>
      <note default-x="12" default-y="-50">
        <pitch>
          <step>C</step>
          <octave>5</octave>
        </pitch>
        <duration>20160</duration>
        <type>half</type>
        <stem>up</stem>
      </note>
      <note default-x="56.95" default-y="-50">
        <pitch>
          <step>C</step>
          <octave>5</octave>
        </pitch>
        <duration>5040</duration>
        <type>eighth</type>
        <stem>up</stem>
        <beam number="1">begin</beam>
      </note>
      <note default-x="77.38" default-y="-40">
        <pitch>
          <step>E</step>
          <octave>5</octave>
        </pitch>
        <duration>5040</duration>
        <type>eighth</type>
        <stem>up</stem>
        <beam number="1">end</beam>
      </note>
      <barline location="right">
        <bar-style>light-light</bar-style>
      </barline>
    </measure>
    <!--========================= Measure 10 =========================-->
    <measure implicit="no" number="10" width="136.59">
      <barline location="left">
        <bar-style>light-light</bar-style>
      </barline>
      <note default-x="12" default-y="-30">
        <pitch>
          <step>G</step>
          <octave>5</octave>
        </pitch>
        <duration>10080</duration>
        <type>quarter</type>
        <stem>up</stem>
      </note>
      <note default-x="44.32" default-y="-40">
        <pitch>
          <step>E</step>
          <octave>5</octave>
        </pitch>
        <duration>5040</duration>
        <type>eighth</type>
        <stem>up</stem>
      </note>
      <note default-x="70.49" default-y="-35">
        <pitch>
          <step>F</step>
          <octave>5</octave>
        </pitch>
        <duration>10080</duration>
        <type>quarter</type>
        <stem>up</stem>
      </note>
      <note default-x="102.81" default-y="-45">
        <pitch>
          <step>D</step>
          <octave>5</octave>
        </pitch>
        <duration>5040</duration>
        <type>eighth</type>
        <stem>up</stem>
      </note>
    </measure>
    <!--========================= Measure 11 =========================-->
    <measure implicit="no" number="11" width="102.14">
      <note default-x="12" default-y="-40">
        <pitch>
          <step>E</step>
          <octave>5</octave>
        </pitch>
        <duration>20160</duration>
        <type>half</type>
        <stem>up</stem>
      </note>
      <note default-x="56.95" default-y="-50">
        <pitch>
          <step>C</step>
          <octave>5</octave>
        </pitch>
        <duration>5040</duration>
        <type>eighth</type>
        <stem>up</stem>
        <beam number="1">begin</beam>
      </note>
      <note default-x="77.38" default-y="-40">
        <pitch>
          <step>E</step>
          <octave>5</octave>
        </pitch>
        <duration>5040</duration>
        <type>eighth</type>
        <stem>up</stem>
        <beam number="1">end</beam>
      </note>
    </measure>
    <!--========================= Measure 12 =========================-->
    <measure implicit="no" number="12" width="136.59">
      <note default-x="12" default-y="-30">
        <pitch>
          <step>G</step>
          <octave>5</octave>
        </pitch>
        <duration>10080</duration>
        <type>quarter</type>
        <stem>up</stem>
      </note>
      <note default-x="44.32" default-y="-40">
        <pitch>
          <step>E</step>
          <octave>5</octave>
        </pitch>
        <duration>5040</duration>
        <type>eighth</type>
        <stem>up</stem>
      </note>
      <note default-x="70.49" default-y="-35">
        <pitch>
          <step>F</step>
          <octave>5</octave>
        </pitch>
        <duration>10080</duration>
        <type>quarter</type>
        <stem>up</stem>
      </note>
      <note default-x="102.81" default-y="-45">
        <pitch>
          <step>D</step>
          <octave>5</octave>
        </pitch>
        <duration>5040</duration>
        <type>eighth</type>
        <stem>up</stem>
      </note>
    </measure>
    <!--========================= Measure 13 =========================-->
    <measure implicit="no" number="13" width="102.14">
      <note default-x="12" default-y="-40">
        <pitch>
          <step>E</step>
          <octave>5</octave>
        </pitch>
        <duration>20160</duration>
        <type>half</type>
        <stem>up</stem>
      </note>
      <note default-x="56.95" default-y="-50">
        <pitch>
          <step>C</step>
          <octave>5</octave>
        </pitch>
        <duration>5040</duration>
        <type>eighth</type>
        <stem>up</stem>
        <beam number="1">begin</beam>
      </note>
      <note default-x="77.38" default-y="-40">
        <pitch>
          <step>E</step>
          <octave>5</octave>
        </pitch>
        <duration>5040</duration>
        <type>eighth</type>
        <stem>up</stem>
        <beam number="1">end</beam>
      </note>
    </measure>
    <!--========================= Measure 14 =========================-->
    <measure implicit="no" number="14" width="136.59">
      <note default-x="12" default-y="-30">
        <pitch>
          <step>G</step>
          <octave>5</octave>
        </pitch>
        <duration>10080</duration>
        <type>quarter</type>
        <stem>up</stem>
      </note>
      <note default-x="44.32" default-y="-40">
        <pitch>
          <step>E</step>
          <octave>5</octave>
        </pitch>
        <duration>5040</duration>
        <type>eighth</type>
        <stem>up</stem>
      </note>
      <note default-x="70.49" default-y="-35">
        <pitch>
          <step>F</step>
          <octave>5</octave>
        </pitch>
        <duration>10080</duration>
        <type>quarter</type>
        <stem>up</stem>
      </note>
      <note default-x="102.81" default-y="-45">
        <pitch>
          <step>D</step>
          <octave>5</octave>
        </pitch>
        <duration>5040</duration>
        <type>eighth</type>
        <stem>up</stem>
      </note>
    </measure>
    <!--========================= Measure 15 =========================-->
    <measure implicit="no" number="15" width="152.89">
      <note default-x="12" default-y="-40">
        <pitch>
          <step>E</step>
          <octave>5</octave>
        </pitch>
        <duration>5040</duration>
        <type>eighth</type>
        <stem>up</stem>
        <beam number="1">begin</beam>
      </note>
      <note default-x="35.21" default-y="-45">
        <pitch>
          <step>D</step>
          <octave>5</octave>
        </pitch>
        <duration>5040</duration>
        <type>eighth</type>
        <stem>up</stem>
        <beam number="1">continue</beam>
      </note>
      <note default-x="58.43" default-y="-50">
        <pitch>
          <step>C</step>
          <octave>5</octave>
        </pitch>
        <duration>5040</duration>
        <tie type="start" />
        <type>eighth</type>
        <stem>up</stem>
        <beam number="1">end</beam>
        <notations>
          <tied type="start" />
        </notations>
      </note>
      <note default-x="81.64" default-y="-50">
        <pitch>
          <step>C</step>
          <octave>5</octave>
        </pitch>
        <duration>5040</duration>
        <tie type="stop" />
        <type>eighth</type>
        <stem>up</stem>
        <beam number="1">begin</beam>
        <notations>
          <tied type="stop" />
        </notations>
      </note>
      <note default-x="104.86" default-y="-40">
        <pitch>
          <step>E</step>
          <octave>5</octave>
        </pitch>
        <duration>5040</duration>
        <type>eighth</type>
        <stem>up</stem>
        <beam number="1">continue</beam>
      </note>
      <note default-x="128.07" default-y="-50">
        <pitch>
          <step>C</step>
          <octave>5</octave>
        </pitch>
        <duration>5040</duration>
        <type>eighth</type>
        <stem>up</stem>
        <beam number="1">end</beam>
      </note>
    </measure>
    <!--========================= Measure 16 =========================-->
    <measure implicit="no" number="16" width="157.49">
      <note default-x="12" default-y="-45">
        <pitch>
          <step>D</step>
          <octave>5</octave>
        </pitch>
        <duration>5040</duration>
        <type>eighth</type>
        <stem>up</stem>
        <beam number="1">begin</beam>
      </note>
      <note default-x="35.21" default-y="-50">
        <pitch>
          <step>C</step>
          <octave>5</octave>
        </pitch>
        <duration>5040</duration>
        <type>eighth</type>
        <stem>up</stem>
        <beam number="1">continue</beam>
      </note>
      <note default-x="58.43" default-y="-55">
        <pitch>
          <step>B</step>
          <octave>4</octave>
        </pitch>
        <duration>5040</duration>
        <type>eighth</type>
        <stem>up</stem>
        <beam number="1">end</beam>
      </note>
      <note default-x="81.64" default-y="-45">
        <pitch>
          <step>D</step>
          <octave>5</octave>
        </pitch>
        <duration>5040</duration>
        <type>eighth</type>
        <stem>up</stem>
        <beam number="1">begin</beam>
      </note>
      <note default-x="104.86" default-y="-50">
        <pitch>
          <step>C</step>
          <octave>5</octave>
        </pitch>
        <duration>5040</duration>
        <type>eighth</type>
        <stem>up</stem>
        <beam number="1">continue</beam>
      </note>
      <note default-x="128.07" default-y="-55">
        <pitch>
          <step>B</step>
          <octave>4</octave>
        </pitch>
        <duration>5040</duration>
        <type>eighth</type>
        <stem>up</stem>
        <beam number="1">end</beam>
      </note>
      <barline location="right">
        <bar-style>light-light</bar-style>
      </barline>
    </measure>
    <!--========================= Measure 18 =========================-->
    <measure implicit="no" number="18" width="161.39">
      <print new-system="yes">
        <system-layout>
          <system-margins>
            <left-margin>0</left-margin>
            <right-margin>0</right-margin>
          </system-margins>
          <system-distance>92.5</system-distance>
        </system-layout>
      </print>
      <barline location="left">
        <bar-style>regular</bar-style>
      </barline>
      <note default-x="53.15" default-y="-50">
        <pitch>
          <step>C</step>
          <octave>5</octave>
        </pitch>
        <duration>20160</duration>
        <type>half</type>
        <stem>up</stem>
      </note>
      <note default-x="101.26" default-y="-15">
        <pitch>
          <step>C</step>
          <octave>6</octave>
        </pitch>
        <duration>5040</duration>
        <type>eighth</type>
        <stem>down</stem>
        <beam number="1">begin</beam>
      </note>
      <note default-x="123.13" default-y="-20">
        <pitch>
          <step>B</step>
          <octave>5</octave>
        </pitch>
        <duration>5040</duration>
        <type>eighth</type>
        <stem>down</stem>
        <beam number="1">end</beam>
      </note>
      <barline location="right">
        <bar-style>regular</bar-style>
      </barline>
    </measure>
    <!--========================= Measure 19 =========================-->
    <measure implicit="no" number="19" width="157.48">
      <barline location="left">
        <bar-style>light-light</bar-style>
      </barline>
      <note default-x="12" default-y="-30">
        <pitch>
          <step>G</step>
          <octave>5</octave>
        </pitch>
        <duration>5040</duration>
        <type>eighth</type>
        <stem>down</stem>
        <beam number="1">begin</beam>
      </note>
      <note default-x="35.98" default-y="-15">
        <pitch>
          <step>C</step>
          <octave>6</octave>
        </pitch>
        <duration>5040</duration>
        <type>eighth</type>
        <stem>down</stem>
        <beam number="1">continue</beam>
      </note>
      <note default-x="59.96" default-y="-20">
        <pitch>
          <step>B</step>
          <octave>5</octave>
        </pitch>
        <duration>5040</duration>
        <type>eighth</type>
        <stem>down</stem>
        <beam number="1">end</beam>
      </note>
      <note default-x="83.94" default-y="-30">
        <pitch>
          <step>G</step>
          <octave>5</octave>
        </pitch>
        <duration>5040</duration>
        <type>eighth</type>
        <stem>down</stem>
        <beam number="1">begin</beam>
      </note>
      <note default-x="107.92" default-y="-15">
        <pitch>
          <step>C</step>
          <octave>6</octave>
        </pitch>
        <duration>5040</duration>
        <type>eighth</type>
        <stem>down</stem>
        <beam number="1">continue</beam>
      </note>
      <note default-x="131.9" default-y="-20">
        <pitch>
          <step>B</step>
          <octave>5</octave>
        </pitch>
        <duration>5040</duration>
        <type>eighth</type>
        <stem>down</stem>
        <beam number="1">end</beam>
      </note>
    </measure>
    <!--========================= Measure 20 =========================-->
    <measure implicit="no" number="20" width="149.33">
      <note default-x="12" default-y="-30">
        <pitch>
          <step>G</step>
          <octave>5</octave>
        </pitch>
        <duration>10080</duration>
        <type>quarter</type>
        <stem>up</stem>
      </note>
      <note default-x="50.11" default-y="-40">
        <pitch>
          <step>E</step>
          <octave>5</octave>
        </pitch>
        <duration>5040</duration>
        <type>eighth</type>
        <stem>up</stem>
      </note>
      <note default-x="76.28" default-y="-40">
        <pitch>
          <step>E</step>
          <octave>5</octave>
        </pitch>
        <duration>5040</duration>
        <type>eighth</type>
        <stem>up</stem>
        <beam number="1">begin</beam>
      </note>
      <note default-x="100.1" default-y="-45">
        <pitch>
          <step>D</step>
          <octave>5</octave>
        </pitch>
        <duration>5040</duration>
        <type>eighth</type>
        <stem>up</stem>
        <beam number="1">continue</beam>
      </note>
      <note default-x="123.92" default-y="-40">
        <pitch>
          <step>E</step>
          <octave>5</octave>
        </pitch>
        <duration>5040</duration>
        <type>eighth</type>
        <stem>up</stem>
        <beam number="1">end</beam>
      </note>
    </measure>
    <!--========================= Measure 21 =========================-->
    <measure implicit="no" number="21" width="149.33">
      <note default-x="12" default-y="-35">
        <pitch>
          <step>F</step>
          <octave>5</octave>
        </pitch>
        <duration>10080</duration>
        <type>quarter</type>
        <stem>up</stem>
      </note>
      <note default-x="50.11" default-y="-45">
        <pitch>
          <step>D</step>
          <octave>5</octave>
        </pitch>
        <duration>5040</duration>
        <type>eighth</type>
        <stem>up</stem>
      </note>
      <note default-x="76.28" default-y="-45">
        <pitch>
          <step>D</step>
          <octave>5</octave>
        </pitch>
        <duration>5040</duration>
        <type>eighth</type>
        <stem>up</stem>
        <beam number="1">begin</beam>
      </note>
      <note default-x="100.1" default-y="-50">
        <pitch>
          <step>C</step>
          <octave>5</octave>
        </pitch>
        <duration>5040</duration>
        <type>eighth</type>
        <stem>up</stem>
        <beam number="1">continue</beam>
      </note>
      <note default-x="123.92" default-y="-45">
        <pitch>
          <step>D</step>
          <octave>5</octave>
        </pitch>
        <duration>5040</duration>
        <type>eighth</type>
        <stem>up</stem>
        <beam number="1">end</beam>
      </note>
    </measure>
    <!--========================= Measure 22 =========================-->
    <measure implicit="no" number="22" width="123.16">
      <note default-x="12" default-y="-40">
        <pitch>
          <step>E</step>
          <octave>5</octave>
        </pitch>
        <duration>10080</duration>
        <type>quarter</type>
        <stem>up</stem>
      </note>
      <note default-x="44.91" default-y="-50">
        <pitch>
          <step>C</step>
          <octave>5</octave>
        </pitch>
        <duration>10080</duration>
        <type>quarter</type>
        <stem>up</stem>
      </note>
      <note default-x="77.83" default-y="-15">
        <pitch>
          <step>C</step>
          <octave>6</octave>
        </pitch>
        <duration>5040</duration>
        <type>eighth</type>
        <stem>down</stem>
        <beam number="1">begin</beam>
      </note>
      <note default-x="98.4" default-y="-20">
        <pitch>
          <step>B</step>
          <octave>5</octave>
        </pitch>
        <duration>5040</duration>
        <type>eighth</type>
        <stem>down</stem>
        <beam number="1">end</beam>
      </note>
    </measure>
    <!--========================= Measure 23 =========================-->
    <measure implicit="no" number="23" width="157.48">
      <note default-x="12" default-y="-30">
        <pitch>
          <step>G</step>
          <octave>5</octave>
        </pitch>
        <duration>5040</duration>
        <type>eighth</type>
        <stem>down</stem>
        <beam number="1">begin</beam>
      </note>
      <note default-x="35.98" default-y="-15">
        <pitch>
          <step>C</step>
          <octave>6</octave>
        </pitch>
        <duration>5040</duration>
        <type>eighth</type>
        <stem>down</stem>
        <beam number="1">continue</beam>
      </note>
      <note default-x="59.96" default-y="-20">
        <pitch>
          <step>B</step>
          <octave>5</octave>
        </pitch>
        <duration>5040</duration>
        <type>eighth</type>
        <stem>down</stem>
        <beam number="1">end</beam>
      </note>
      <note default-x="83.94" default-y="-30">
        <pitch>
          <step>G</step>
          <octave>5</octave>
        </pitch>
        <duration>5040</duration>
        <type>eighth</type>
        <stem>down</stem>
        <beam number="1">begin</beam>
      </note>
      <note default-x="107.92" default-y="-15">
        <pitch>
          <step>C</step>
          <octave>6</octave>
        </pitch>
        <duration>5040</duration>
        <type>eighth</type>
        <stem>down</stem>
        <beam number="1">continue</beam>
      </note>
      <note default-x="131.9" default-y="-20">
        <pitch>
          <step>B</step>
          <octave>5</octave>
        </pitch>
        <duration>5040</duration>
        <type>eighth</type>
        <stem>down</stem>
        <beam number="1">end</beam>
      </note>
    </measure>
    <!--========================= Measure 24 =========================-->
    <measure implicit="no" number="24" width="149.33">
      <note default-x="12" default-y="-30">
        <pitch>
          <step>G</step>
          <octave>5</octave>
        </pitch>
        <duration>10080</duration>
        <type>quarter</type>
        <stem>up</stem>
      </note>
      <note default-x="50.11" default-y="-40">
        <pitch>
          <step>E</step>
          <octave>5</octave>
        </pitch>
        <duration>5040</duration>
        <type>eighth</type>
        <stem>up</stem>
      </note>
      <note default-x="76.28" default-y="-40">
        <pitch>
          <step>E</step>
          <octave>5</octave>
        </pitch>
        <duration>5040</duration>
        <type>eighth</type>
        <stem>up</stem>
        <beam number="1">begin</beam>
      </note>
      <note default-x="100.1" default-y="-45">
        <pitch>
          <step>D</step>
          <octave>5</octave>
        </pitch>
        <duration>5040</duration>
        <type>eighth</type>
        <stem>up</stem>
        <beam number="1">continue</beam>
      </note>
      <note default-x="123.92" default-y="-40">
        <pitch>
          <step>E</step>
          <octave>5</octave>
        </pitch>
        <duration>5040</duration>
        <type>eighth</type>
        <stem>up</stem>
        <beam number="1">end</beam>
      </note>
    </measure>
    <!--========================= Measure 25 =========================-->
    <measure implicit="no" number="25" width="149.33">
      <note default-x="12" default-y="-35">
        <pitch>
          <step>F</step>
          <octave>5</octave>
        </pitch>
        <duration>10080</duration>
        <type>quarter</type>
        <stem>up</stem>
      </note>
      <note default-x="50.11" default-y="-45">
        <pitch>
          <step>D</step>
          <octave>5</octave>
        </pitch>
        <duration>5040</duration>
        <type>eighth</type>
        <stem>up</stem>
      </note>
      <note default-x="76.28" default-y="-45">
        <pitch>
          <step>D</step>
          <octave>5</octave>
        </pitch>
        <duration>5040</duration>
        <type>eighth</type>
        <stem>up</stem>
        <beam number="1">begin</beam>
      </note>
      <note default-x="100.1" default-y="-40">
        <pitch>
          <step>E</step>
          <octave>5</octave>
        </pitch>
        <duration>5040</duration>
        <type>eighth</type>
        <stem>up</stem>
        <beam number="1">continue</beam>
      </note>
      <note default-x="123.92" default-y="-45">
        <pitch>
          <step>D</step>
          <octave>5</octave>
        </pitch>
        <duration>5040</duration>
        <type>eighth</type>
        <stem>up</stem>
        <beam number="1">end</beam>
      </note>
    </measure>
    <!--========================= Measure 26 =========================-->
    <measure implicit="no" number="26" width="126.47">
      <print new-system="yes">
        <system-layout>
          <system-margins>
            <left-margin>0</left-margin>
            <right-margin>989.49</right-margin>
          </system-margins>
          <system-distance>92.5</system-distance>
        </system-layout>
      </print>
      <barline location="left">
        <bar-style>regular</bar-style>
      </barline>
      <note default-x="53.15" default-y="-50">
        <pitch>
          <step>C</step>
          <octave>5</octave>
        </pitch>
        <duration>20160</duration>
        <type>half</type>
        <stem>up</stem>
      </note>
      <note default-x="71.05" default-y="-15">
        <pitch>
          <step>C</step>
          <octave>6</octave>
        </pitch>
        <duration>5040</duration>
        <type>eighth</type>
        <stem>down</stem>
        <beam number="1">begin</beam>
      </note>
      <note default-x="88.21" default-y="-20">
        <pitch>
          <step>B</step>
          <octave>5</octave>
        </pitch>
        <duration>5040</duration>
        <type>eighth</type>
        <stem>down</stem>
        <beam number="1">end</beam>
      </note>
      <barline location="right">
        <bar-style>light-light</bar-style>
      </barline>
    </measure>
    <!--========================= Measure 19 =========================-->
    <measure implicit="no" number="19" width="157.48">
      <barline location="left">
        <bar-style>light-light</bar-style>
      </barline>
      <note default-x="12" default-y="-30">
        <pitch>
          <step>G</step>
          <octave>5</octave>
        </pitch>
        <duration>5040</duration>
        <type>eighth</type>
        <stem>down</stem>
        <beam number="1">begin</beam>
      </note>
      <note default-x="35.98" default-y="-15">
        <pitch>
          <step>C</step>
          <octave>6</octave>
        </pitch>
        <duration>5040</duration>
        <type>eighth</type>
        <stem>down</stem>
        <beam number="1">continue</beam>
      </note>
      <note default-x="59.96" default-y="-20">
        <pitch>
          <step>B</step>
          <octave>5</octave>
        </pitch>
        <duration>5040</duration>
        <type>eighth</type>
        <stem>down</stem>
        <beam number="1">end</beam>
      </note>
      <note default-x="83.94" default-y="-30">
        <pitch>
          <step>G</step>
          <octave>5</octave>
        </pitch>
        <duration>5040</duration>
        <type>eighth</type>
        <stem>down</stem>
        <beam number="1">begin</beam>
      </note>
      <note default-x="107.92" default-y="-15">
        <pitch>
          <step>C</step>
          <octave>6</octave>
        </pitch>
        <duration>5040</duration>
        <type>eighth</type>
        <stem>down</stem>
        <beam number="1">continue</beam>
      </note>
      <note default-x="131.9" default-y="-20">
        <pitch>
          <step>B</step>
          <octave>5</octave>
        </pitch>
        <duration>5040</duration>
        <type>eighth</type>
        <stem>down</stem>
        <beam number="1">end</beam>
      </note>
    </measure>
    <!--========================= Measure 20 =========================-->
    <measure implicit="no" number="20" width="149.33">
      <note default-x="12" default-y="-30">
        <pitch>
          <step>G</step>
          <octave>5</octave>
        </pitch>
        <duration>10080</duration>
        <type>quarter</type>
        <stem>up</stem>
      </note>
      <note default-x="50.11" default-y="-40">
        <pitch>
          <step>E</step>
          <octave>5</octave>
        </pitch>
        <duration>5040</duration>
        <type>eighth</type>
        <stem>up</stem>
      </note>
      <note default-x="76.28" default-y="-40">
        <pitch>
          <step>E</step>
          <octave>5</octave>
        </pitch>
        <duration>5040</duration>
        <type>eighth</type>
        <stem>up</stem>
        <beam number="1">begin</beam>
      </note>
      <note default-x="100.1" default-y="-45">
        <pitch>
          <step>D</step>
          <octave>5</octave>
        </pitch>
        <duration>5040</duration>
        <type>eighth</type>
        <stem>up</stem>
        <beam number="1">continue</beam>
      </note>
      <note default-x="123.92" default-y="-40">
        <pitch>
          <step>E</step>
          <octave>5</octave>
        </pitch>
        <duration>5040</duration>
        <type>eighth</type>
        <stem>up</stem>
        <beam number="1">end</beam>
      </note>
    </measure>
    <!--========================= Measure 21 =========================-->
    <measure implicit="no" number="21" width="149.33">
      <note default-x="12" default-y="-35">
        <pitch>
          <step>F</step>
          <octave>5</octave>
        </pitch>
        <duration>10080</duration>
        <type>quarter</type>
        <stem>up</stem>
      </note>
      <note default-x="50.11" default-y="-45">
        <pitch>
          <step>D</step>
          <octave>5</octave>
        </pitch>
        <duration>5040</duration>
        <type>eighth</type>
        <stem>up</stem>
      </note>
      <note default-x="76.28" default-y="-45">
        <pitch>
          <step>D</step>
          <octave>5</octave>
        </pitch>
        <duration>5040</duration>
        <type>eighth</type>
        <stem>up</stem>
        <beam number="1">begin</beam>
      </note>
      <note default-x="100.1" default-y="-50">
        <pitch>
          <step>C</step>
          <octave>5</octave>
        </pitch>
        <duration>5040</duration>
        <type>eighth</type>
        <stem>up</stem>
        <beam number="1">continue</beam>
      </note>
      <note default-x="123.92" default-y="-45">
        <pitch>
          <step>D</step>
          <octave>5</octave>
        </pitch>
        <duration>5040</duration>
        <type>eighth</type>
        <stem>up</stem>
        <beam number="1">end</beam>
      </note>
    </measure>
    <!--========================= Measure 22 =========================-->
    <measure implicit="no" number="22" width="123.16">
      <note default-x="12" default-y="-40">
        <pitch>
          <step>E</step>
          <octave>5</octave>
        </pitch>
        <duration>10080</duration>
        <type>quarter</type>
        <stem>up</stem>
      </note>
      <note default-x="44.91" default-y="-50">
        <pitch>
          <step>C</step>
          <octave>5</octave>
        </pitch>
        <duration>10080</duration>
        <type>quarter</type>
        <stem>up</stem>
      </note>
      <note default-x="77.83" default-y="-15">
        <pitch>
          <step>C</step>
          <octave>6</octave>
        </pitch>
        <duration>5040</duration>
        <type>eighth</type>
        <stem>down</stem>
        <beam number="1">begin</beam>
      </note>
      <note default-x="98.4" default-y="-20">
        <pitch>
          <step>B</step>
          <octave>5</octave>
        </pitch>
        <duration>5040</duration>
        <type>eighth</type>
        <stem>down</stem>
        <beam number="1">end</beam>
      </note>
    </measure>
    <!--========================= Measure 23 =========================-->
    <measure implicit="no" number="23" width="157.48">
      <note default-x="12" default-y="-30">
        <pitch>
          <step>G</step>
          <octave>5</octave>
        </pitch>
        <duration>5040</duration>
        <type>eighth</type>
        <stem>down</stem>
        <beam number="1">begin</beam>
      </note>
      <note default-x="35.98" default-y="-15">
        <pitch>
          <step>C</step>
          <octave>6</octave>
        </pitch>
        <duration>5040</duration>
        <type>eighth</type>
        <stem>down</stem>
        <beam number="1">continue</beam>
      </note>
      <note default-x="59.96" default-y="-20">
        <pitch>
          <step>B</step>
          <octave>5</octave>
        </pitch>
        <duration>5040</duration>
        <type>eighth</type>
        <stem>down</stem>
        <beam number="1">end</beam>
      </note>
      <note default-x="83.94" default-y="-30">
        <pitch>
          <step>G</step>
          <octave>5</octave>
        </pitch>
        <duration>5040</duration>
        <type>eighth</type>
        <stem>down</stem>
        <beam number="1">begin</beam>
      </note>
      <note default-x="107.92" default-y="-15">
        <pitch>
          <step>C</step>
          <octave>6</octave>
        </pitch>
        <duration>5040</duration>
        <type>eighth</type>
        <stem>down</stem>
        <beam number="1">continue</beam>
      </note>
      <note default-x="131.9" default-y="-20">
        <pitch>
          <step>B</step>
          <octave>5</octave>
        </pitch>
        <duration>5040</duration>
        <type>eighth</type>
        <stem>down</stem>
        <beam number="1">end</beam>
      </note>
    </measure>
    <!--========================= Measure 24 =========================-->
    <measure implicit="no" number="24" width="149.33">
      <note default-x="12" default-y="-30">
        <pitch>
          <step>G</step>
          <octave>5</octave>
        </pitch>
        <duration>10080</duration>
        <type>quarter</type>
        <stem>up</stem>
      </note>
      <note default-x="50.11" default-y="-40">
        <pitch>
          <step>E</step>
          <octave>5</octave>
        </pitch>
        <duration>5040</duration>
        <type>eighth</type>
        <stem>up</stem>
      </note>
      <note default-x="76.28" default-y="-40">
        <pitch>
          <step>E</step>
          <octave>5</octave>
        </pitch>
        <duration>5040</duration>
        <type>eighth</type>
        <stem>up</stem>
        <beam number="1">begin</beam>
      </note>
      <note default-x="100.1" default-y="-45">
        <pitch>
          <step>D</step>
          <octave>5</octave>
        </pitch>
        <duration>5040</duration>
        <type>eighth</type>
        <stem>up</stem>
        <beam number="1">continue</beam>
      </note>
      <note default-x="123.92" default-y="-40">
        <pitch>
          <step>E</step>
          <octave>5</octave>
        </pitch>
        <duration>5040</duration>
        <type>eighth</type>
        <stem>up</stem>
        <beam number="1">end</beam>
      </note>
    </measure>
    <!--========================= Measure 25 =========================-->
    <measure implicit="no" number="25" width="149.33">
      <note default-x="12" default-y="-35">
        <pitch>
          <step>F</step>
          <octave>5</octave>
        </pitch>
        <duration>10080</duration>
        <type>quarter</type>
        <stem>up</stem>
      </note>
      <note default-x="50.11" default-y="-45">
        <pitch>
          <step>D</step>
          <octave>5</octave>
        </pitch>
        <duration>5040</duration>
        <type>eighth</type>
        <stem>up</stem>
      </note>
      <note default-x="76.28" default-y="-45">
        <pitch>
          <step>D</step>
          <octave>5</octave>
        </pitch>
        <duration>5040</duration>
        <type>eighth</type>
        <stem>up</stem>
        <beam number="1">begin</beam>
      </note>
      <note default-x="100.1" default-y="-40">
        <pitch>
          <step>E</step>
          <octave>5</octave>
        </pitch>
        <duration>5040</duration>
        <type>eighth</type>
        <stem>up</stem>
        <beam number="1">continue</beam>
      </note>
      <note default-x="123.92" default-y="-45">
        <pitch>
          <step>D</step>
          <octave>5</octave>
        </pitch>
        <duration>5040</duration>
        <type>eighth</type>
        <stem>up</stem>
        <beam number="1">end</beam>
      </note>
    </measure>
    <!--========================= Measure 27 =========================-->
    <measure implicit="no" number="27" width="80.88">
      <barline location="left">
        <bar-style>regular</bar-style>
      </barline>
      <note default-x="12" default-y="-50">
        <pitch>
          <step>C</step>
          <octave>5</octave>
        </pitch>
        <duration>5040</duration>
        <type>eighth</type>
        <stem>up</stem>
      </note>
      <note>
        <rest />
        <duration>10080</duration>
        <type>quarter</type>
      </note>
      <note>
        <rest />
        <duration>15120</duration>
        <type>quarter</type>
        <dot />
      </note>
      <barline location="right">
        <bar-style>light-heavy</bar-style>
      </barline>
    </measure>
  </part>
</score-partwise>